<?xml version="1.0" encoding="utf-8"?>
<!-- Generator: Adobe Illustrator 24.0.2, SVG Export Plug-In . SVG Version: 6.00 Build 0)  -->
<svg version="1.1" id="Layer_1" xmlns="http://www.w3.org/2000/svg" xmlns:xlink="http://www.w3.org/1999/xlink" x="0px" y="0px"
	 viewBox="0 0 960 960" style="enable-background:new 0 0 960 960;" xml:space="preserve">
<style type="text/css">
	.st0{fill:#FFFFFF;}
</style>
<rect width="964.23" height="964.23"/>
<g>
	<g>
		<path class="st0" d="M517.3,359.99c-2.38-4.2-26.5-16.1-35.24-14.59c0,0,3.94-1.58,11.25-1.58S511.07,348.19,517.3,359.99z"/>
		<path class="st0" d="M520.21,373.72c-0.18-2.8-0.27-5.08-0.45-6.21s-0.07-2.75-3.1-5c-3.71-2.92-12-7.15-18.07-9.66
			s-18.58-6.62-21.88-4.97c-1.81,0.9-3.21,2.06-6.17,4.97c0,0,0.92-0.69,2.38-0.63c1.45,0.07,9.91,0.72,25.89,7.76
			c15.98,7.04,19.52,11.01,19.95,11.43S519.89,372.57,520.21,373.72z"/>
		<path class="st0" d="M516.19,387.11c0,0,1.32-2.45,2.02-4.27c0.7-1.82,0.58-1.79,0.89-2.71c0.31-0.91,0.21-1.42-1.39-3.04
			c-6.67-5.8-19.06-11.57-28.07-14.82c-11.39-3.83-22.35-6.6-23.61-4.62s-2.58,7.4-2.58,7.4s0.62-1.67,2.81-1.85
			c2.84-0.23,19.55,6,27.99,9.64c13.67,5.9,20.18,11.08,21.24,12.33S516.19,387.11,516.19,387.11z"/>
		<path class="st0" d="M506.45,397.03c0,0,1.66-0.98,3.02-2.13c1.36-1.15,2.43-2.21,2.91-2.7c0.48-0.5,0.7-1.01,0-1.8
			c-1.22-1.69-9.21-7.48-22.05-12.6c-12.84-5.12-21.24-7.84-25.51-7.84c-2.11,0-2.21,0.9-2.23,1.94c-0.02,1.14,0.18,2.2,0.25,3.04
			s0.62,3.94,0.62,3.94s-0.18-0.78,1.14-0.78c3.13-0.3,13.91,3.4,19.96,5.8c10.63,4.21,20.08,10.26,21.09,11.15
			C506.66,395.93,506.76,396.48,506.45,397.03z"/>
		<path class="st0" d="M493.35,401.17c0,0,1.74-0.05,4.31-0.63c2.58-0.58,4.11-0.99,4.11-1.55c0-1.5-10.15-7.07-17.28-9.97
			s-13.87-5.45-18.06-5.68c-0.73,0-1.34,0.13-1.14,0.97c0.21,0.87,0.71,2.03,1.65,3.42s1.9,2.72,2.62,3.42c0,0-0.78-0.92,0.4-0.87
			s6.79,1.3,13.25,4.25c6.45,2.95,9.23,4.54,10.54,5.86C494.06,400.69,494.16,401.04,493.35,401.17z"/>
		<path class="st0" d="M480.3,398.94c-3.04-1.49-7.45-4.04-7.02-4.51c0.83-0.91,15.32,4.93,15.11,6.42
			C488.29,401.54,481.89,399.72,480.3,398.94z"/>
	</g>
	<path class="st0" d="M603.03,363.15C592.01,373.52,464.68,448.69,464.68,519c0,15.01,1.94,36.23,36.4,38.88
		c21.06,1.62,52.27-11.88,53.79,1.3c1.44,12.55-26.68,29.59-61.02,29.59s-62.97-19.12-62.97-63.83
		C430.87,435.94,603.03,363.15,603.03,363.15z"/>
	<path class="st0" d="M557.68,582.18c0,0-39.85,34.01-83.6,34.01s-87.46-34.67-87.46-75.79c0-1.17,0.05-2.34,0.1-3.5
		c0-0.81,0.05-1.62,0.1-2.44c3.35-44.01,42.22-71.36,64.72-85.18c-4.37,10.25-10.61,20.1-16.5,30.66
		c-8.78,15.84-16.65,33.25-15.84,55.99c2.08,57.92,64.77,62.59,73.15,62.59C525.7,598.53,557.68,582.18,557.68,582.18z"/>
	<path class="st0" d="M457.22,421.47c-0.42,10.23-6.64,18.95-23.56,32.53c-11.26,9.03-30.81,26.81-30.81,26.81
		c2.28-4.62,4.52-9.14,6.55-13.71c5.38-11.83,9.59-23.91,9.59-38.53c0-43.6-58.43-67.46-62.03-68.93
		C362.05,360.61,458.96,379.33,457.22,421.47z"/>
</g>
</svg>
