<svg xmlns="http://www.w3.org/2000/svg" xmlns:xlink="http://www.w3.org/1999/xlink" version="1.1" id="Layer_1" x="0px" y="0px" style="enable-background:new 0 0 960 960;" xml:space="preserve" viewBox="221.9 418.61 422.74 112.3">
<style type="text/css">
	.st0{fill:#124385;}
	.st1{font-family:'Poppins-SemiBoldItalic';}
	.st2{font-size:70.0192px;}
	.st3{fill:#F0464A;}
</style><style class="darkreader darkreader--sync" media="screen"/>
<g>
	<text transform="matrix(1 0 0 1 318.001 499.873)" class="st0 st1 st2">lingosource</text>
	<g>
		<g>
			<path class="st0" d="M287.99,425.28c-0.98-1.73-10.93-6.64-14.53-6.02c0,0,1.62-0.65,4.64-0.65S285.43,420.41,287.99,425.28z"/>
			<path class="st0" d="M289.2,430.94c-0.07-1.15-0.11-2.1-0.18-2.56c-0.07-0.46-0.03-1.13-1.28-2.06c-1.53-1.2-4.95-2.95-7.45-3.98     c-2.5-1.03-7.66-2.73-9.02-2.05c-0.75,0.37-1.33,0.85-2.54,2.05c0,0,0.38-0.29,0.98-0.26c0.6,0.03,4.09,0.3,10.67,3.2     c6.59,2.9,8.05,4.54,8.23,4.71S289.06,430.46,289.2,430.94z"/>
			<path class="st0" d="M287.54,436.46c0,0,0.54-1.01,0.83-1.76c0.29-0.75,0.24-0.74,0.37-1.12c0.13-0.38,0.09-0.59-0.57-1.25     c-2.75-2.39-7.86-4.77-11.58-6.11c-4.7-1.58-9.22-2.72-9.73-1.91c-0.52,0.82-1.06,3.05-1.06,3.05s0.26-0.69,1.16-0.76     c1.17-0.1,8.06,2.47,11.54,3.98c5.64,2.43,8.32,4.57,8.76,5.08S287.54,436.46,287.54,436.46z"/>
			<path class="st0" d="M283.52,440.55c0,0,0.68-0.4,1.25-0.88c0.56-0.47,1-0.91,1.2-1.12c0.2-0.2,0.29-0.42,0-0.74     c-0.5-0.7-3.8-3.09-9.09-5.2c-5.3-2.11-8.76-3.23-10.52-3.23c-0.87,0-0.91,0.37-0.92,0.8c-0.01,0.47,0.07,0.91,0.1,1.25     c0.03,0.34,0.25,1.62,0.25,1.62s-0.07-0.32,0.47-0.32c1.29-0.12,5.74,1.4,8.23,2.39c4.38,1.74,8.28,4.23,8.69,4.6     S283.65,440.32,283.52,440.55z"/>
			<path class="st0" d="M278.12,442.26c0,0,0.72-0.02,1.78-0.26c1.06-0.24,1.69-0.41,1.69-0.64c0-0.62-4.19-2.91-7.13-4.11     c-2.94-1.2-5.72-2.25-7.45-2.34c-0.3,0-0.55,0.05-0.47,0.4c0.09,0.36,0.29,0.84,0.68,1.41c0.39,0.57,0.78,1.12,1.08,1.41     c0,0-0.32-0.38,0.17-0.36c0.49,0.02,2.8,0.53,5.46,1.75c2.66,1.22,3.8,1.87,4.35,2.42C278.41,442.06,278.46,442.21,278.12,442.26     z"/>
			<path class="st0" d="M272.74,441.34c-1.25-0.61-3.07-1.67-2.9-1.86c0.34-0.37,6.32,2.03,6.23,2.65     C276.03,442.41,273.39,441.66,272.74,441.34z"/>
		</g>
		<path class="st3" d="M323.34,426.58c-4.54,4.28-57.05,35.27-57.05,64.26c0,6.19,0.8,14.94,15.01,16.03    c8.68,0.67,21.55-4.9,22.18,0.53c0.59,5.18-11,12.2-25.16,12.2c-14.16,0-25.96-7.88-25.96-26.32    C252.36,456.6,323.34,426.58,323.34,426.58z"/>
		<path class="st0" d="M304.65,516.89c0,0-16.43,14.02-34.47,14.02s-36.06-14.3-36.06-31.25c0-0.48,0.02-0.96,0.04-1.44    c0-0.33,0.02-0.67,0.04-1c1.38-18.15,17.41-29.42,26.69-35.12c-1.8,4.23-4.37,8.29-6.8,12.64c-3.62,6.53-6.86,13.71-6.53,23.09    c0.86,23.88,26.71,25.81,30.16,25.81C291.46,523.63,304.65,516.89,304.65,516.89z"/>
		<path class="st0" d="M263.23,450.63c-0.17,4.22-2.74,7.82-9.71,13.41c-4.64,3.72-12.7,11.06-12.7,11.06    c0.94-1.9,1.86-3.77,2.7-5.65c2.22-4.88,3.96-9.86,3.96-15.89c0-17.98-24.09-27.82-25.58-28.42    C223.98,425.53,263.94,433.25,263.23,450.63z"/>
	</g>
</g>
</svg>